<svg id="Layer_1" data-name="Layer 1" xmlns="http://www.w3.org/2000/svg" viewBox="0 0 841.89 841.89"><defs><style>.cls-1{fill:#231f20;}</style></defs><path class="cls-1" d="M674.23,369.28a138.39,138.39,0,0,1-16.81,20.23c-25.89,25.92-58.92,39.61-95.52,39.61s-69.66-13.69-95.55-39.61-39.57-58.93-39.57-95.58,13.67-69.63,39.57-95.52a136.43,136.43,0,0,1,30.86-23.29,268.86,268.86,0,0,0-85.83-14c-149.1,0-270,120.91-270,270S262.28,701,411.38,701s270-120.77,270-269.87A270.3,270.3,0,0,0,674.23,369.28ZM290.68,587.6A54.24,54.24,0,1,1,345,533.42,54.27,54.27,0,0,1,290.68,587.6Zm0-193.17A54.24,54.24,0,1,1,345,340.13,54.3,54.3,0,0,1,290.68,394.43Zm120.7,75.24a33.13,33.13,0,1,1,33.17-33.17A33.12,33.12,0,0,1,411.38,469.67ZM518.84,587.6A54.24,54.24,0,1,1,573,533.42,54.3,54.3,0,0,1,518.84,587.6Z"/><path class="cls-1" d="M479.51,377.53a54.69,54.69,0,0,0,4.63,4.36Q481.76,379.79,479.51,377.53Z"/><path class="cls-1" d="M644.86,211a115.07,115.07,0,0,0-83-34.4,115.07,115.07,0,0,0-83,34.4,117.38,117.38,0,0,0,0,166c.19.19.41.41.6.58q2.25,2.27,4.63,4.36a.79.79,0,0,0,.17.14A117.33,117.33,0,0,0,644.86,377a118.23,118.23,0,0,0,22.62-31.37A117.83,117.83,0,0,0,644.86,211Zm-22.59,81.18-54.42,25-7.16,3.28-2,27.17a16.15,16.15,0,0,1,9.5,14.8v.17a16.07,16.07,0,0,1-9.7,14.54,15.65,15.65,0,0,1-6.39,1.33H552a16.11,16.11,0,0,1-8.75-29.61L542,329l-17.94,8.19a16.15,16.15,0,1,1-23.72-15.67,15.91,15.91,0,0,1,7.59-1.9A16.36,16.36,0,0,1,517.9,323l22.9-14.46-1.09-18.35L536.8,241a26,26,0,0,1,25.92-27.53h.09l5.67,0-5.93,81.37L619.38,259l12.27-7.74,2.65,5a26,26,0,0,1-12,35.92Z"/><path class="cls-1" d="M479.51,377.53a54.69,54.69,0,0,0,4.63,4.36Q481.76,379.79,479.51,377.53Z"/></svg>