<svg id="Layer_1" data-name="Layer 1" xmlns="http://www.w3.org/2000/svg" viewBox="0 0 841.89 841.89"><defs><style>.cls-1{fill:#231f20;}.cls-2{font-size:55.84px;fill:#1c1c1c;font-family:Metropolis-Bold, Metropolis;font-weight:700;letter-spacing:-0.05em;}</style></defs><path class="cls-1" d="M394.9,299.35a1.38,1.38,0,0,1,1.39,1.38v76.74l-12.42-13-27.05-27.82a1.38,1.38,0,0,0-2.38,1v38.31a1.39,1.39,0,0,1-1.39,1.39H341.59a1.38,1.38,0,0,1-1.38-1.39V299.35l12.41,13,27.06,27.82a1.39,1.39,0,0,0,2.38-1V300.73a1.38,1.38,0,0,1,1.38-1.38Zm-12.84,0h0Z"/><path class="cls-1" d="M472.18,308.83a41.42,41.42,0,1,1-29.3-12.14A40.67,40.67,0,0,1,472.18,308.83Zm-29.3,2.09a27.21,27.21,0,0,0,0,54.41,27.14,27.14,0,0,0,27.21-27.2A27.15,27.15,0,0,0,462.14,319,26.78,26.78,0,0,0,442.88,310.92Z"/><path class="cls-1" d="M543.18,299.35a1.55,1.55,0,0,1,1.55,1.54v76.58l-12.42-13L505.53,337a1.54,1.54,0,0,0-2.65,1.08v37.75a1.56,1.56,0,0,1-1.55,1.55H490.19a1.55,1.55,0,0,1-1.54-1.55V299.35l12.41,13,26.78,27.54a1.55,1.55,0,0,0,2.66-1.08V300.89a1.54,1.54,0,0,1,1.54-1.54Zm-12.68,0h0Z"/><path class="cls-1" d="M589.93,338.81a1.1,1.1,0,0,1,1.1-1.1h42.14v.14c0,11.58-3.76,21.62-11.43,29.29a42.31,42.31,0,0,1-30.14,12.42,39.86,39.86,0,0,1-29.29-12.14,41.42,41.42,0,0,1,0-58.59,41.6,41.6,0,0,1,48.13-7.67A39.84,39.84,0,0,1,624.58,313a1.12,1.12,0,0,1-.25,1.55l-9.82,7.1a1.1,1.1,0,0,1-1.51-.23,27.91,27.91,0,0,0-9-7.38,26,26,0,0,0-12.42-3.07A26.67,26.67,0,0,0,572.49,319a27.14,27.14,0,0,0,19.11,46.32,28.25,28.25,0,0,0,19.95-8.23,29.06,29.06,0,0,0,2.69-3.14,1.11,1.11,0,0,0-.88-1.77L591,352a1.11,1.11,0,0,1-1.09-1.1Z"/><path class="cls-1" d="M662.38,351.39a3.13,3.13,0,1,1-4.24-1.27A3.13,3.13,0,0,1,662.38,351.39Z"/><path class="cls-1" d="M678.31,362.26a3.13,3.13,0,1,1-3.12-3.13A3.14,3.14,0,0,1,678.31,362.26Z"/><path class="cls-1" d="M707.94,308.83a41.39,41.39,0,1,0,12.15,29.29A40.64,40.64,0,0,0,707.94,308.83Zm-8,28.67-21.74,10-.72,9.6a5.69,5.69,0,1,1-5.44.43l-.43-7-6.34,2.89a5.71,5.71,0,1,1-2.18-5l8.09-5.11-1.42-23.84a9.18,9.18,0,0,1,9.19-9.73l2,0-2.1,28.73,24.4-15.38.94,1.75A9.18,9.18,0,0,1,700,337.5Z"/><path class="cls-1" d="M727.47,300.73l20,41.62a1.45,1.45,0,0,0,2.63,0l19.78-41.6a1.47,1.47,0,0,1,1.32-.84h12.39a1.46,1.46,0,0,1,1.31,2.09l-29.69,62.22-6.42,13.53-6.55-13.53L712.45,302a1.46,1.46,0,0,1,1.32-2.09h12.38A1.46,1.46,0,0,1,727.47,300.73Z"/><path class="cls-1" d="M342,475.12a1.29,1.29,0,0,1-1.21-1.72l21.57-60.92,4.69-13.26a1.29,1.29,0,0,1,2.38-.13l6,12.55,16.6,34.46,16.74-34.46,6.05-12.55a1.29,1.29,0,0,1,2.38.13L422,412.48l21.57,60.92a1.29,1.29,0,0,1-1.22,1.72H430a1.29,1.29,0,0,1-1.21-.86L415.13,436a1.29,1.29,0,0,0-2.36-.17L392.1,475.12l-20.66-39.24a1.29,1.29,0,0,0-2.36.17l-13.5,38.21a1.3,1.3,0,0,1-1.22.86Z"/><path class="cls-1" d="M463.51,429.08h17.9a1.65,1.65,0,0,1,1.65,1.66v10.92a1.65,1.65,0,0,1-1.65,1.65h-17.9a1.65,1.65,0,0,0-1.65,1.66v14.12a1.65,1.65,0,0,0,1.65,1.66h26.81v14.37h-41a1.66,1.66,0,0,1-1.66-1.66V398.09a1.65,1.65,0,0,1,1.66-1.65h41v14.23H463.51a1.65,1.65,0,0,0-1.65,1.65v15.11A1.65,1.65,0,0,0,463.51,429.08Z"/><path class="cls-1" d="M509.71,396.58h.07l9,.14a39.22,39.22,0,0,1,27.76,11.44A38.76,38.76,0,0,1,558,435.92a39.06,39.06,0,0,1-39.2,39.2H497.46a2,2,0,0,1-2-2V398.55a2,2,0,0,1,2-2Zm0,0,0,16.34v46a2,2,0,0,0,2,2h7.1a24.86,24.86,0,0,0,17.57-42.55A24.44,24.44,0,0,0,518.78,411h-7.1A2,2,0,0,0,509.71,412.92Z"/><path class="cls-1" d="M578.77,397.83v76a1.25,1.25,0,0,1-1.25,1.25H565.79a1.25,1.25,0,0,1-1.25-1.25v-76a1.25,1.25,0,0,1,1.25-1.25h11.73A1.25,1.25,0,0,1,578.77,397.83Z"/><path class="cls-1" d="M635.88,457.26H609.56a1,1,0,0,0-.94.6l-7.81,16.66a1.05,1.05,0,0,1-.94.6H586.54a1,1,0,0,1-.94-1.48l30.14-63.81,5.49-11.59a1,1,0,0,1,1.87,0l5.61,11.46,31.49,63.93a1,1,0,0,1-.93,1.5H646a1,1,0,0,1-.92-.58l-8.23-16.7A1,1,0,0,0,635.88,457.26Zm-18.94-13.39h11.23a1,1,0,0,0,.93-1.49l-5.72-11.77a1,1,0,0,0-1.87,0L616,442.4A1,1,0,0,0,616.94,443.87Z"/><path class="cls-1" d="M261.22,497.34A129.48,129.48,0,0,0,315.45,391.7c-.1-69.95-56.64-127.85-126.58-129.52a129.73,129.73,0,1,0-3.7,259.41H783.26a2.68,2.68,0,0,0,2.68-2.68V500a2.68,2.68,0,0,0-2.68-2.68Zm-20.52-175a26.07,26.07,0,1,1-29.23,29.26A26.1,26.1,0,0,1,240.7,322.32Zm-6.79,92.85a26.07,26.07,0,1,1-22.44,22.44A26.09,26.09,0,0,1,233.91,415.17ZM124.35,466.86a26.07,26.07,0,1,1,29.22-29.25A26.08,26.08,0,0,1,124.35,466.86ZM131.14,374a26.07,26.07,0,1,1,22.43-22.44A26.09,26.09,0,0,1,131.14,374Zm38.68,21.25a15.92,15.92,0,1,1,15.54,15.14A16.08,16.08,0,0,1,169.82,395.27Z"/><text class="cls-2" transform="translate(87.09 581.33)">Unearth. Inspire. Transform</text></svg>